<svg width="26" height="26" viewBox="0 0 26 26" fill="none" xmlns="http://www.w3.org/2000/svg">
<path d="M17.3333 13.2167C17.3333 14.8525 15.86 16.185 13.6283 18.2108L13 18.785L12.3717 18.2108C10.14 16.185 8.66667 14.8525 8.66667 13.2167C8.66667 11.8842 9.7175 10.8333 11.05 10.8333C11.8083 10.8333 12.5233 11.18 13 11.7325C13.4767 11.18 14.1917 10.8333 14.95 10.8333C16.2825 10.8333 17.3333 11.8842 17.3333 13.2167ZM22.75 5.41667V20.5833C22.75 21.7858 21.7858 22.75 20.5833 22.75H5.41667C4.84203 22.75 4.29093 22.5217 3.8846 22.1154C3.47827 21.7091 3.25 21.158 3.25 20.5833V5.41667C3.25 4.225 4.225 3.25 5.41667 3.25H6.5V1.08333H8.66667V3.25H17.3333V1.08333H19.5V3.25H20.5833C21.158 3.25 21.7091 3.47827 22.1154 3.8846C22.5217 4.29093 22.75 4.84203 22.75 5.41667ZM5.41667 5.41667V7.58333H20.5833V5.41667H5.41667ZM20.5833 20.5833V9.75H5.41667V20.5833H20.5833Z" fill="#FF427F"/>
</svg>
